<svg xmlns="http://www.w3.org/2000/svg" version="1.1" xmlnsXlink="http://www.w3.org/1999/xlink" xmlnsSvgjs="http://svgjs.dev/svgjs" width="2000" height="1601" viewBox="0 0 2000 1601"><g transform="matrix(1,0,0,1,-1.2120956946761225,0.7708616968287743)"><svg viewBox="0 0 396 317" data-background-color="#ffffff" preserveAspectRatio="xMidYMid meet" height="1601" width="2000" xmlns="http://www.w3.org/2000/svg" xmlnsXlink="http://www.w3.org/1999/xlink"><g id="tight-bounds" transform="matrix(1,0,0,1,0.23999506596277342,-0.15263157894736423)"><svg viewBox="0 0 395.52 317.30526315789473" height="317.30526315789473" width="395.52"><g><svg viewBox="0 0 395.52 317.30526315789473" height="317.30526315789473" width="395.52"><g><svg viewBox="0 0 395.52 317.30526315789473" height="317.30526315789473" width="395.52"><g id="textblocktransform"><svg viewBox="0 0 395.52 317.30526315789473" height="317.30526315789473" width="395.52" id="textblock"><g><svg viewBox="0 0 395.52 317.30526315789473" height="317.30526315789473" width="395.52"><g transform="matrix(1,0,0,1,0,0)"><svg width="395.52" viewBox="1.6100000143051147 -37.84000015258789 47.779998779296875 38.33000183105469" height="317.30526315789473" data-palette-color="#d21c1c"><path d="M6.23-0.17L6.23-0.17Q5.32 0.49 4.16 0.49 3 0.49 2.31-0.11 1.61-0.71 1.61-1.49 1.61-2.27 1.86-2.64L1.86-2.64Q2.56-2.22 4.1-2.22L4.1-2.22Q4.71-2.22 5.44-2.84 6.18-3.47 6.62-4.57L6.62-4.57 6.62-16.02Q6.62-17.16 6.13-17.72L6.13-17.72Q5.4-18.6 3.64-19.46L3.64-19.46Q5.42-20.31 5.88-20.87L5.88-20.87Q6.62-21.8 6.62-22.95L6.62-22.95 6.64-33.59Q6.05-35.13 4.05-35.13L4.05-35.13Q3.03-35.13 2.54-34.72L2.54-34.72Q2.29-35.03 2.29-35.55 2.29-36.06 2.51-36.47 2.73-36.89 3.13-37.21L3.13-37.21Q3.96-37.84 5.35-37.84 6.74-37.84 7.64-37.04L7.64-37.04Q8.45-37.84 9.52-37.84 10.6-37.84 11.35-36.94L11.35-36.94Q12.3-37.84 13.04-37.84 13.77-37.84 14.16-37.72 14.55-37.6 14.94-37.26L14.94-37.26Q15.72-36.65 16.58-34.79L16.58-34.79 25.93-15.38 33.64-34.4 34.33-35.99Q34.94-37.33 35.47-37.59 36.01-37.84 36.73-37.84 37.45-37.84 38.21-37.3L38.21-37.3Q39.14-37.84 40.64-37.84 42.14-37.84 43.24-37.04L43.24-37.04Q44.21-37.84 45.28-37.84 46.34-37.84 46.94-37.67 47.53-37.5 47.97-37.21L47.97-37.21Q48.9-36.55 48.9-35.57L48.9-35.57Q48.9-35.08 48.63-34.72L48.63-34.72Q48.1-35.13 47.27-35.13L47.27-35.13Q45.41-35.13 44.75-33.4L44.75-33.4 44.75-22.95Q44.75-21.75 45.26-21.17L45.26-21.17Q46.07-20.21 47.73-19.46L47.73-19.46Q45.95-18.58 45.46-18.02L45.46-18.02Q44.75-17.14 44.75-16.02L44.75-16.02 44.75-4.08Q45.58-2.22 47.75-2.22L47.75-2.22Q48.58-2.22 49.12-2.64L49.12-2.64Q49.39-2.27 49.39-1.79 49.39-1.32 49.11-0.9 48.83-0.49 48.34-0.2L48.34-0.2Q47.22 0.49 45.78 0.49 44.34 0.49 43.09-0.29L43.09-0.29Q41.94 0.49 40.48 0.49L40.48 0.49Q38.92 0.49 37.72-0.29L37.72-0.29Q36.47 0.49 35.41 0.49 34.35 0.49 33.67 0.31 32.98 0.12 32.47-0.2L32.47-0.2Q31.42-0.83 31.42-1.78L31.42-1.78Q31.42-2.27 31.69-2.64L31.69-2.64Q32.23-2.22 33.06-2.22L33.06-2.22Q35.23-2.22 36.06-4.08L36.06-4.08 36.06-30.76 26.54-7.18 25.49-4.79Q24.73-3.08 24.43-2.86 24.12-2.64 23.93-2.64L23.93-2.64Q23.32-2.64 23.07-2.76L23.07-2.76 10.03-28.47 10.03-4.59Q10.5-3.47 11.3-2.84 12.11-2.22 13.11-2.22 14.11-2.22 14.82-2.64L14.82-2.64Q15.09-2.2 15.09-1.43 15.09-0.66 14.33-0.09 13.57 0.49 12.38 0.49 11.18 0.49 10.18-0.12L10.18-0.12Q9.3 0.49 8.17 0.49 7.03 0.49 6.23-0.17ZM21.92-13.65L13.48-30.54Q13.23-30.18 13.23-29.49L13.23-29.49Q13.23-27.51 14.89-24.24L14.89-24.24 23.78-6.49Q23.95-6.71 23.95-7.42L23.95-7.42Q23.95-9.55 21.92-13.65L21.92-13.65ZM38.4-30.52L38.4-6.47Q39.62-6.93 39.75-9.67L39.75-9.67Q39.89-12.4 39.89-17.24 39.89-22.07 39.88-23.67 39.87-25.27 39.84-26.25L39.84-26.25Q39.77-29.13 39.29-29.72 38.82-30.32 38.4-30.52L38.4-30.52ZM9.72-5.86L9.69-6.15Q9.69-5.96 9.72-5.86L9.72-5.86ZM6.93-5.86L6.96-6.15Q6.93-6.05 6.93-5.86L6.93-5.86Z" opacity="1" transform="matrix(1,0,0,1,0,0)" fill="#d21c1c" class="wordmark-text-0" data-fill-palette-color="primary" id="text-0"></path></svg></g></svg></g></svg></g></svg></g><g></g></svg></g><defs></defs></svg><rect width="395.52" height="317.30526315789473" fill="none" stroke="none" visibility="hidden"></rect></g></svg></g></svg>